<svg xmlns="http://www.w3.org/2000/svg" xmlns:xlink="http://www.w3.org/1999/xlink" width="100" height="100" viewBox="0 0 100 100">
  <defs>
    <clipPath id="clip-redux_1">
      <rect width="100" height="100"/>
    </clipPath>
  </defs>
  <g id="redux_1" data-name="redux – 1" clip-path="url(#clip-redux_1)">
    <g id="javascript_logo" transform="translate(0.005 0.146)">
      <rect id="Rectangle_1" data-name="Rectangle 1" width="100" height="100" transform="translate(-0.005 -0.146)" fill="#f7df1e"/>
      <path id="Path_19" data-name="Path 19" d="M206.811,318.705c2.019,3.3,4.645,5.718,9.29,5.718,3.9,0,6.394-1.95,6.394-4.645,0-3.229-2.561-4.373-6.856-6.251l-2.354-1.01c-6.8-2.9-11.31-6.522-11.31-14.189,0-7.063,5.381-12.439,13.791-12.439,5.987,0,10.292,2.084,13.393,7.54l-7.333,4.708c-1.615-2.9-3.356-4.036-6.06-4.036-2.758,0-4.506,1.75-4.506,4.036,0,2.825,1.75,3.969,5.79,5.718l2.354,1.008c8,3.431,12.519,6.929,12.519,14.793,0,8.478-6.66,13.123-15.6,13.123-8.745,0-14.4-4.168-17.16-9.63Zm-33.266.816c1.479,2.625,2.825,4.844,6.06,4.844,3.094,0,5.046-1.21,5.046-5.917v-32.02h9.417v32.147c0,9.751-5.717,14.189-14.062,14.189-7.54,0-11.906-3.9-14.127-8.6Z" transform="translate(-139.494 -240.5)"/>
    </g>
  </g>
</svg>
