<svg xmlns="http://www.w3.org/2000/svg" width="90" height="90" viewBox="0 0 90 90">
  <g id="Group_38" data-name="Group 38" transform="translate(-5 -5)" fill='currentColor'>
    <g id="Group_32" data-name="Group 32">
      <g id="Group_31" data-name="Group 31">
        <g id="icon-0">
          <path id="Path_21" data-name="Path 21" d="M95,52A42.9,42.9,0,0,0,80.318,19.682,42.972,42.972,0,1,0,19.677,80.313,42.9,42.9,0,0,0,52,95c.084,0,.166-.006.25-.006s.166.006.25.006A42.5,42.5,0,0,0,95,52.5c0-.084-.006-.166-.006-.25S95,52.084,95,52ZM21.828,73.371A36.786,36.786,0,0,1,15.006,52.25,37.494,37.494,0,0,1,52.25,15.006a36.784,36.784,0,0,1,21.121,6.822A36.452,36.452,0,1,1,21.828,73.371ZM6,48A41.967,41.967,0,0,1,74.1,15.13,42.979,42.979,0,0,0,15.127,74.1,41.78,41.78,0,0,1,6,48ZM52,89A36.865,36.865,0,0,1,26.095,78.385a37.445,37.445,0,0,0,52.29-52.29A36.976,36.976,0,0,1,52,89Z"/>
        </g>
      </g>
    </g>
  </g>
</svg>
