<svg xmlns="http://www.w3.org/2000/svg" xmlns:xlink="http://www.w3.org/1999/xlink" width="166.56" height="100" viewBox="0 0 166.56 100">
  <defs>
    <clipPath id="clip-nextjs">
      <rect width="166.56" height="100"/>
    </clipPath>
  </defs>
  <g id="nextjs" clip-path="url(#clip-nextjs)">
    <g id="Page-1" transform="translate(-0.203 -0.287)">
      <g id="Black-Next.js" transform="translate(0.203 0.287)">
        <g id="next-black" transform="translate(0 0)">
          <g id="EXT-_-Type-something" data-name="EXT-+-Type-something" transform="translate(0 0)">
            <path id="EXT" d="M48.942,26.368H80.357v2.485H51.822v18.7H78.655V50.04H51.822V70.573H80.684v2.485H48.942Zm34.229,0h3.338L101.3,46.9l15.118-20.533L136.981.287,103.2,49.059l17.409,24h-3.469L101.3,51.217,85.4,73.058h-3.4l17.54-24Zm38.679,2.485V26.368h35.8v2.485H141.157v44.2h-2.88v-44.2Z" transform="translate(-9.641 -0.287)" fill="#fff"/>
            <path id="Type-something" d="M.2,32.632H3.8l49.636,73.919L32.926,79.321,3.213,36.163,3.083,79.321H.2Z" transform="translate(-0.203 -6.551)" fill="#fff"/>
          </g>
          <path id="_.JS" data-name=".JS" d="M183.149,84.017a1.04,1.04,0,1,0-1.03-1.04A1.011,1.011,0,0,0,183.149,84.017Zm2.83-2.736a2.816,2.816,0,0,0,3.082,2.862,2.893,2.893,0,0,0,3.124-3.19V73.827h-1.569v7.119c0,1.124-.567,1.724-1.569,1.724a1.4,1.4,0,0,1-1.527-1.389Zm8.258-.091c.112,1.8,1.618,2.952,3.859,2.952,2.4,0,3.894-1.207,3.894-3.134,0-1.515-.854-2.352-2.928-2.834l-1.114-.272c-1.317-.307-1.849-.719-1.849-1.438,0-.907.826-1.5,2.066-1.5a1.929,1.929,0,0,1,2.136,1.508h1.527c-.091-1.7-1.59-2.889-3.642-2.889-2.206,0-3.677,1.193-3.677,2.987,0,1.48.833,2.359,2.662,2.785l1.3.314c1.338.314,1.926.775,1.926,1.542,0,.893-.925,1.542-2.185,1.542-1.352,0-2.29-.607-2.423-1.563Z" transform="translate(-35.432 -14.481)" fill="#fff"/>
        </g>
      </g>
    </g>
  </g>
</svg>
