<svg xmlns="http://www.w3.org/2000/svg" xmlns:xlink="http://www.w3.org/1999/xlink" width="100" height="100" viewBox="0 0 100 100">
  <defs>
    <clipPath id="clip-react">
      <rect width="100" height="100"/>
    </clipPath>
  </defs>
  <g id="react" clip-path="url(#clip-react)">
    <g id="react-2" data-name="react" transform="translate(-175.7 -72.527)">
      <path id="Path_8" data-name="Path 8" d="M275.7,122.537c0-6.625-8.3-12.9-21.015-16.8,2.935-12.964,1.631-23.278-4.117-26.58A8.937,8.937,0,0,0,246,78.02v4.545a4.72,4.72,0,0,1,2.324.53c2.772,1.59,3.975,7.644,3.037,15.43-.224,1.916-.591,3.934-1.04,5.993A98.78,98.78,0,0,0,237.38,102.3,99.424,99.424,0,0,0,228.9,92.105c6.645-6.176,12.882-9.56,17.122-9.56V78c-5.605,0-12.943,4-20.363,10.925C218.24,82.036,210.9,78.082,205.3,78.082v4.545c4.219,0,10.477,3.363,17.122,9.5A96.265,96.265,0,0,0,214,102.3a95.179,95.179,0,0,0-12.964,2.242c-.469-2.038-.815-4.016-1.06-5.911-.958-7.786.224-13.84,2.976-15.45a4.536,4.536,0,0,1,2.344-.53V78.1a9.088,9.088,0,0,0-4.607,1.141c-5.728,3.3-7.012,13.6-4.056,26.519-12.678,3.914-20.934,10.171-20.934,16.775,0,6.625,8.3,12.9,21.015,16.8-2.935,12.964-1.631,23.278,4.117,26.58a8.961,8.961,0,0,0,4.586,1.141c5.605,0,12.943-4,20.363-10.925,7.419,6.89,14.757,10.844,20.363,10.844a9.088,9.088,0,0,0,4.607-1.141c5.728-3.3,7.012-13.6,4.056-26.519,12.638-3.893,20.893-10.171,20.893-16.775Zm-26.539-13.6c-.754,2.629-1.692,5.34-2.752,8.051-.836-1.631-1.712-3.261-2.67-4.892-.938-1.631-1.936-3.221-2.935-4.77C243.7,107.759,246.491,108.289,249.161,108.942Zm-9.336,21.708c-1.59,2.752-3.221,5.361-4.912,7.786-3.037.265-6.115.408-9.213.408-3.078,0-6.156-.143-9.172-.387q-2.538-3.638-4.933-7.746-2.324-4.005-4.24-8.113c1.264-2.731,2.691-5.463,4.219-8.133,1.59-2.752,3.221-5.361,4.912-7.786,3.037-.265,6.115-.408,9.213-.408,3.078,0,6.156.143,9.172.387q2.538,3.638,4.933,7.746,2.324,4.005,4.24,8.112C242.761,125.248,241.354,127.98,239.826,130.65Zm6.584-2.65c1.1,2.731,2.038,5.463,2.813,8.113-2.67.652-5.483,1.2-8.4,1.631,1-1.57,2-3.18,2.935-4.831C244.7,131.282,245.574,129.631,246.409,128Zm-20.669,21.749a84.062,84.062,0,0,1-5.667-6.523c1.835.082,3.71.143,5.605.143,1.916,0,3.812-.041,5.667-.143A79.546,79.546,0,0,1,225.741,149.749Zm-15.165-12.006c-2.894-.428-5.687-.958-8.357-1.61.754-2.629,1.692-5.34,2.752-8.051.836,1.631,1.712,3.261,2.67,4.892S209.577,136.194,210.576,137.743Zm15.063-42.417a84.014,84.014,0,0,1,5.667,6.523c-1.834-.082-3.71-.143-5.605-.143-1.916,0-3.812.041-5.667.143A79.582,79.582,0,0,1,225.639,95.326Zm-15.084,12.006c-1,1.569-2,3.18-2.935,4.831-.938,1.631-1.814,3.261-2.65,4.892-1.1-2.731-2.038-5.463-2.813-8.113C204.828,108.31,207.641,107.759,210.555,107.331Zm-18.447,25.52c-7.216-3.078-11.883-7.114-11.883-10.314s4.668-7.256,11.883-10.314c1.753-.754,3.669-1.427,5.646-2.059a97.906,97.906,0,0,0,4.586,12.413,96.527,96.527,0,0,0-4.525,12.352c-2.018-.632-3.934-1.325-5.707-2.079Zm10.966,29.128c-2.772-1.59-3.975-7.644-3.037-15.43.224-1.916.591-3.934,1.039-5.993a98.786,98.786,0,0,0,12.943,2.222,99.424,99.424,0,0,0,8.479,10.192c-6.645,6.176-12.882,9.56-17.122,9.56A4.864,4.864,0,0,1,203.075,161.979Zm48.349-15.532c.958,7.786-.224,13.84-2.976,15.45a4.536,4.536,0,0,1-2.344.53c-4.219,0-10.477-3.363-17.122-9.5a96.274,96.274,0,0,0,8.418-10.171,95.182,95.182,0,0,0,12.964-2.242A57.043,57.043,0,0,1,251.424,146.447Zm7.848-13.6c-1.753.754-3.669,1.427-5.646,2.059a97.89,97.89,0,0,0-4.586-12.413,96.511,96.511,0,0,0,4.525-12.352c2.018.632,3.934,1.325,5.728,2.079,7.216,3.078,11.883,7.114,11.883,10.314C271.155,125.737,266.487,129.794,259.271,132.851Z" transform="translate(0)" fill="#61dafb"/>
      <circle id="Ellipse_1" data-name="Ellipse 1" cx="9.315" cy="9.315" r="9.315" transform="translate(216.365 113.222)" fill="#61dafb"/>
    </g>
  </g>
</svg>
