<svg xmlns="http://www.w3.org/2000/svg" xmlns:xlink="http://www.w3.org/1999/xlink" width="100" height="100" viewBox="0 0 100 100">
  <defs>
    <clipPath id="clip-redux">
      <rect width="100" height="100"/>
    </clipPath>
  </defs>
  <g id="redux" clip-path="url(#clip-redux)">
    <path id="redux-2" data-name="redux" d="M69.289,66.3a7.148,7.148,0,0,0-.764-14.253h-.254A7.12,7.12,0,0,0,61.4,59.43a7.308,7.308,0,0,0,2.036,4.709c-4.327,8.527-10.944,14.762-20.87,19.98a34.413,34.413,0,0,1-20.742,3.945c-5.727-.764-10.18-3.309-12.98-7.509A18.693,18.693,0,0,1,7.826,60.83a29.955,29.955,0,0,1,8.653-10.181c-.509-1.654-1.273-4.454-1.654-6.49C-3.627,57.521-1.718,75.592,3.881,84.118c4.2,6.363,12.725,10.308,22.142,10.308a31.3,31.3,0,0,0,7.635-.891C49.947,90.354,62.291,80.682,69.289,66.3Zm22.4-15.78C82.015,39.2,67.763,32.96,51.474,32.96H49.438A6.993,6.993,0,0,0,43.2,29.142h-.255A7.129,7.129,0,0,0,43.2,43.4h.254a7.169,7.169,0,0,0,6.236-4.327h2.291A48.5,48.5,0,0,1,79.088,47.34,34.09,34.09,0,0,1,92.577,63.629c2.163,5.345,2.036,10.563-.255,15.017-3.563,6.745-9.544,10.435-17.434,10.435a32.547,32.547,0,0,1-12.471-2.673c-1.4,1.273-3.945,3.309-5.727,4.582a39.287,39.287,0,0,0,16.416,3.945c12.216,0,21.252-6.745,24.688-13.489,3.69-7.381,3.436-20.107-6.108-30.924ZM27.041,68.465a7.148,7.148,0,0,0,7.126,6.872h.255a7.129,7.129,0,0,0-.255-14.253h-.254a2.168,2.168,0,0,0-.891.127A46.627,46.627,0,0,1,26.405,32.96a34.137,34.137,0,0,1,7.508-19.725c3.69-4.709,10.816-7,15.652-7.126C63.054,5.854,68.78,22.652,69.162,29.4c1.654.382,4.454,1.273,6.363,1.909C74,10.69,61.272,0,49.056,0,37.6,0,27.041,8.272,22.841,20.489c-5.854,16.289-2.036,31.942,5.09,44.286a5.718,5.718,0,0,0-.891,3.691Z" transform="translate(0 2.532)" fill="#764abc"/>
  </g>
</svg>
