<svg xmlns="http://www.w3.org/2000/svg" xmlns:xlink="http://www.w3.org/1999/xlink" width="166.67" height="100" viewBox="0 0 166.67 100">
  <defs>
    <linearGradient id="linear-gradient" x1="-0.028" y1="0.32" x2="1" y2="0.676" gradientUnits="objectBoundingBox">
      <stop offset="0" stop-color="#2298bd"/>
      <stop offset="1" stop-color="#0ed7b5"/>
    </linearGradient>
    <clipPath id="clip-Tailwind">
      <rect width="166.67" height="100"/>
    </clipPath>
  </defs>
  <g id="Tailwind" clip-path="url(#clip-Tailwind)">
    <path id="tailwindcss" d="M83.333,0Q50,0,41.667,33.333q12.5-16.667,29.167-12.5c6.339,1.585,10.87,6.184,15.886,11.275C94.89,40.4,104.346,50,125,50q33.333,0,41.667-33.333-12.5,16.667-29.167,12.5c-6.339-1.585-10.87-6.184-15.886-11.275C113.443,9.6,103.988,0,83.333,0ZM41.667,50Q8.334,50,0,83.333q12.5-16.667,29.167-12.5c6.339,1.585,10.87,6.184,15.886,11.275C53.223,90.4,62.679,100,83.333,100Q116.666,100,125,66.667q-12.5,16.667-29.167,12.5c-6.339-1.585-10.87-6.184-15.886-11.275C71.777,59.6,62.321,50,41.667,50Z" fill="url(#linear-gradient)"/>
  </g>
</svg>
