<svg xmlns="http://www.w3.org/2000/svg" xmlns:xlink="http://www.w3.org/1999/xlink" width="100" height="100" viewBox="0 0 100 100">
  <defs>
    <clipPath id="clip-redux_2">
      <rect width="100" height="100"/>
    </clipPath>
  </defs>
  <g id="redux_2" data-name="redux – 2" clip-path="url(#clip-redux_2)">
    <g id="typescript_logo" transform="translate(0.358 -0.285)">
      <rect id="Rectangle_3" data-name="Rectangle 3" width="100" height="100" transform="translate(0 0.285)" fill="#3178c6"/>
      <path id="Path_20" data-name="Path 20" d="M156.894,271.124v9.787a20.74,20.74,0,0,0,5.645,1.835,37.19,37.19,0,0,0,6.869.612,32.1,32.1,0,0,0,6.686-.673,16.387,16.387,0,0,0,5.554-2.217,11.3,11.3,0,0,0,3.779-4.037,14.222,14.222,0,0,0,.6-10.827,10.9,10.9,0,0,0-2.295-3.563,16.8,16.8,0,0,0-3.6-2.8,38.513,38.513,0,0,0-4.727-2.34q-1.928-.8-3.458-1.545a17.558,17.558,0,0,1-2.6-1.529,6.667,6.667,0,0,1-1.652-1.652,3.476,3.476,0,0,1-.581-1.973,3.3,3.3,0,0,1,.52-1.82,4.492,4.492,0,0,1,1.469-1.392,7.854,7.854,0,0,1,2.325-.9,13.492,13.492,0,0,1,3.06-.321,19.413,19.413,0,0,1,2.585.183,20.469,20.469,0,0,1,2.739.566,19.065,19.065,0,0,1,2.677.963,14.756,14.756,0,0,1,2.4,1.346v-9.145a23.894,23.894,0,0,0-4.88-1.269,39.764,39.764,0,0,0-6.074-.413,28.232,28.232,0,0,0-6.609.749,16.812,16.812,0,0,0-5.492,2.34,11.691,11.691,0,0,0-3.748,4.053,11.881,11.881,0,0,0-1.377,5.888,11.415,11.415,0,0,0,2.524,7.463,19.208,19.208,0,0,0,7.665,5.23q2.019.826,3.764,1.621a20.945,20.945,0,0,1,3.014,1.652,7.9,7.9,0,0,1,2,1.866,3.8,3.8,0,0,1,.734,2.294,3.509,3.509,0,0,1-.459,1.759,4.069,4.069,0,0,1-1.392,1.407,7.632,7.632,0,0,1-2.325.933,13.977,13.977,0,0,1-3.259.336,18.6,18.6,0,0,1-6.3-1.116,18.81,18.81,0,0,1-5.783-3.349ZM140.44,247.009H153v-8.032H118v8.032h12.494v35.762h9.946Z" transform="translate(-94.93 -190.951)" fill="#fff" fill-rule="evenodd"/>
    </g>
  </g>
</svg>
